# xmcd
#
# Track frame offsets:
#	150
#	16736
#	43993
#
# Disc length: 966 seconds
#
# Revision: 0
# Processed by: cddbd v1.5.2PL0 Copyright (c) Steve Scherf et al.
# Submitted via: audiograbber 1.83.01
#
DISCID=1c03c403
DTITLE=Kaksio - Tyttö Tanssii Vaan [CDS)
DYEAR=2004
DGENRE=Pop
TTITLE0=Tyttö Tanssii Vaan
TTITLE1=Tyttö Tanssii Vaan (Blue Room Edit)
TTITLE2=Tyttö Tanssii Vaan (Dijitalis Remake)
EXTD=TR.
EXTT0=
EXTT1=
EXTT2=
PLAYORDER=
